<svg xmlns="http://www.w3.org/2000/svg" xmlns:xlink="http://www.w3.org/1999/xlink" version="1.1" x="0px" y="0px" viewBox="0 0 100 125" enable-background="new 0 0 100 100" xml:space="preserve"><path d="M50,5C25.1,5,5,25.1,5,50c0,24.9,20.1,45,45,45s45-20.1,45-45C95,25.1,74.9,5,50,5z M74.8,63.9c0,0.1,0,0.1,0,0.2v6  c0,4.2-3.3,7.4-7.4,7.4c-4.2,0-7.4-3.4-7.4-7.4v-6c0-4.2,3.4-7.4,7.4-7.4c0.2,0,0.3,0,0.4,0v-7.5c0-10.8-8-19.5-17.7-19.5  s-17.7,8.8-17.7,19.5v7.4c0.2,0,0.3,0,0.4,0c4.2,0,7.4,3.4,7.4,7.4v6c0,4.2-3.3,7.4-7.4,7.4c-4.2,0-7.4-3.4-7.4-7.4v-6  c0-0.1,0-0.1,0-0.2V47.1c0-13.6,11.1-24.6,24.8-24.6s24.8,11.1,24.8,24.6V63.9z"/><text x="0" y="115" fill="#000000" font-size="5px" font-weight="bold" font-family="'Helvetica Neue', Helvetica, Arial-Unicode, Arial, Sans-serif">Created by Nimal Raj</text><text x="0" y="120" fill="#000000" font-size="5px" font-weight="bold" font-family="'Helvetica Neue', Helvetica, Arial-Unicode, Arial, Sans-serif">from the Noun Project</text></svg>